<?xml version="1.0" ?><!-- Uploaded to: SVG Repo, www.svgrepo.com, Generator: SVG Repo Mixer Tools -->
<svg fill="#000000" width="800px" height="800px" viewBox="0 0 32 32" id="OBJECT" xmlns="http://www.w3.org/2000/svg"><title/><ellipse cx="16" cy="11.5" rx="3" ry="4.44"/><path d="M23.34,3.8A11,11,0,0,0,5.05,10.9,10.9,10.9,0,0,0,7.53,19H15V17.67A6.77,6.77,0,0,1,15.7,5a1,1,0,0,1,.6,0A6.77,6.77,0,0,1,17,17.67V19h7.47A11,11,0,0,0,23.34,3.8Z"/><path d="M23,21H9a1,1,0,0,0-1,1v3H24V22A1,1,0,0,0,23,21Z"/><path d="M11,28a3,3,0,0,0,3,3h4a3,3,0,0,0,3-3V27H11Z"/></svg>