<?xml version="1.0" encoding="iso-8859-1"?>
<!-- Uploaded to: SVG Repo, www.svgrepo.com, Generator: SVG Repo Mixer Tools -->
<!DOCTYPE svg PUBLIC "-//W3C//DTD SVG 1.1//EN" "http://www.w3.org/Graphics/SVG/1.1/DTD/svg11.dtd">
<svg fill="#000000" version="1.1" id="Capa_1" xmlns="http://www.w3.org/2000/svg" xmlns:xlink="http://www.w3.org/1999/xlink" 
	 width="800px" height="800px" viewBox="0 0 102.658 102.658"
	 xml:space="preserve">
<g>
	<g>
		<path d="M101.617,14.696c-0.65-0.263-1.684-0.809-2.916-1.14c-1.231-0.345-2.898-0.924-4.592-1.067
			c-1.715-0.18-3.662-0.236-5.78-0.13c-2.067,0.164-4.172,0.605-6.423,1.19c-2.259,0.582-4.312,1.551-6.51,2.608
			c-2.148,1.097-4.1,2.46-6.063,3.949c-1.855,1.535-3.607,3.234-5.216,5.042c-1.499,1.855-2.991,3.768-4.134,5.808
			c-1.185,2.024-2.204,4.106-2.943,6.24c-0.144,0.378-0.235,0.765-0.366,1.146c0.51,1.11,1.15,2.635,2.006,4.762l2.204,0.89
			c6.44-2.919,7.224-2.919,7.519-2.919h0.588l0.082,0.074c0.527-0.644,1.068-1.304,1.595-1.91c0.917-0.953,1.801-1.87,2.639-2.739
			c0.896-0.806,1.745-1.574,2.529-2.274c0.838-0.635,1.608-1.213,2.293-1.725c0.657-0.544,1.348-0.862,1.858-1.188
			c1.047-0.621,1.649-0.976,1.649-0.976s-0.572,0.404-1.564,1.101c-0.489,0.371-1.136,0.729-1.745,1.323
			c-0.633,0.559-1.342,1.188-2.122,1.874c-0.719,0.754-1.491,1.571-2.31,2.432c-0.75,0.918-1.543,1.885-2.365,2.885
			c-0.499,0.672-0.992,1.391-1.491,2.103l3.706,3.616c0.77,0.761,0.988,0.979-2.372,8.584l0.896,2.122
			c0.698,0.246,1.314,0.472,1.896,0.685c0.369-0.209,0.739-0.407,1.108-0.62c1.622-0.931,3.159-1.995,4.688-3.087
			c1.485-1.139,2.96-2.285,4.298-3.559c1.321-1.307,2.656-2.531,3.812-3.949c2.375-2.719,4.395-5.624,6.044-8.694
			c0.855-1.444,1.567-3.13,2.266-4.651c0.704-1.507,1.307-3.183,1.902-4.717c0.603-1.506,1.157-3.034,1.649-4.524
			c0.534-1.535,1.006-2.866,1.393-3.962c0.445-1.094,0.723-2.237,0.976-2.906c0.232-0.756,0.356-1.16,0.356-1.16
			S102.288,14.998,101.617,14.696z"/>
		<path d="M29.268,56.853c0.354-0.137,0.705-0.277,1.097-0.428l0.893-2.111c-3.539-7.469-3.291-7.71-2.519-8.47l4.152-4.059
			c-0.585-0.844-1.17-1.686-1.759-2.481c-0.821-1.003-1.617-1.97-2.366-2.883c-0.816-0.862-1.591-1.679-2.31-2.433
			c-0.78-0.687-1.492-1.314-2.12-1.874c-0.609-0.59-1.258-0.949-1.744-1.322c-0.996-0.696-1.567-1.101-1.567-1.101
			s0.603,0.354,1.651,0.976c0.512,0.329,1.205,0.645,1.856,1.188c0.683,0.512,1.455,1.093,2.296,1.725
			c0.78,0.703,1.629,1.468,2.525,2.274c0.838,0.873,1.725,1.786,2.639,2.739c0.736,0.845,1.483,1.745,2.219,2.661
			c0.412,0.034,1.72,0.318,7.501,2.762l2.199-0.892c0.934-2.498,1.596-4.18,2.113-5.327c-0.137-0.416-0.243-0.83-0.397-1.244
			c-0.739-2.134-1.759-4.218-2.943-6.241c-1.143-2.039-2.635-3.949-4.136-5.807c-1.608-1.807-3.36-3.508-5.213-5.042
			c-1.966-1.489-3.915-2.853-6.062-3.949c-2.209-1.051-4.269-2.018-6.526-2.599c-2.25-0.582-4.354-1.023-6.423-1.193
			c-2.12-0.101-4.063-0.048-5.778,0.13c-1.695,0.144-3.364,0.725-4.598,1.073c-1.23,0.329-2.264,0.876-2.916,1.138
			C0.368,14.364,0,14.587,0,14.587s0.126,0.4,0.354,1.16c0.255,0.671,0.532,1.812,0.977,2.905c0.39,1.097,0.859,2.434,1.391,3.963
			c0.495,1.49,1.052,3.015,1.651,4.524c0.596,1.536,1.198,3.21,1.903,4.717c0.698,1.521,1.408,3.207,2.267,4.651
			c1.651,3.066,3.669,5.975,6.042,8.694c1.157,1.418,2.491,2.642,3.812,3.949c1.338,1.275,2.814,2.421,4.3,3.561
			c1.528,1.092,3.066,2.155,4.685,3.086C28.017,56.157,28.64,56.507,29.268,56.853z"/>
		<path d="M71.376,58.054l-1.386-3.285c0,0,3.217-7.257,2.936-7.534l-4.257-4.16c-0.294-0.284-7.557,3.027-7.557,3.027l-3.347-1.352
			c0,0-2.957-7.356-3.36-7.356h-6.015c-0.417,0-3.153,7.373-3.153,7.373l-3.34,1.355c0,0-7.413-3.15-7.691-2.866l-4.255,4.16
			c-0.294,0.291,3.092,7.396,3.092,7.396l-1.384,3.278c0,0-7.514,2.896-7.514,3.285v5.89c0,0.411,7.531,3.091,7.531,3.091
			l1.377,3.274c0,0-3.21,7.255-2.93,7.529l4.257,4.165c0.288,0.283,7.548-3.032,7.548-3.032l3.35,1.354c0,0,2.962,7.341,3.367,7.341
			h6.013c0.411,0,3.155-7.361,3.155-7.361l3.351-1.354c0,0,7.396,3.151,7.683,2.871l4.257-4.161c0.295-0.295-3.1-7.393-3.1-7.393
			l1.382-3.285c0,0,7.516-2.898,7.516-3.288v-5.89C78.901,60.727,71.376,58.054,71.376,58.054z M51.527,69.695
			c-3.039,0-5.494-2.46-5.494-5.495c0-3.036,2.455-5.493,5.494-5.493c3.035,0,5.492,2.457,5.492,5.493
			C57.02,67.235,54.562,69.695,51.527,69.695z"/>
	</g>
</g>
</svg>