<?xml version="1.0" encoding="UTF-8"?>
<svg xmlns="http://www.w3.org/2000/svg" xmlns:xlink="http://www.w3.org/1999/xlink" width="199pt" height="60pt" viewBox="0 0 199 60" version="1.1">
<g id="surface1">
<path style=" stroke:none;fill-rule:nonzero;fill:rgb(0%,40.784314%,69.019608%);fill-opacity:1;" d="M 24.53125 48.425781 C 20.097656 48.425781 16.089844 45.964844 14.070312 42 C 13.605469 41.082031 13.257812 40.105469 13.046875 39.097656 C 12.878906 38.300781 12.792969 37.476562 12.792969 36.648438 C 12.792969 36.460938 12.796875 36.296875 12.804688 36.144531 L 12.804688 29.066406 L 13.964844 29.066406 L 13.964844 32.6875 L 16.519531 33.359375 L 16.519531 26.152344 L 17.679688 26.152344 L 17.679688 33.667969 L 20.234375 34.339844 L 20.234375 23.238281 L 21.394531 23.238281 L 21.394531 34.648438 L 23.949219 35.320312 L 23.949219 20.320312 L 25.109375 20.320312 L 25.109375 35.34375 L 27.664062 34.671875 L 27.664062 17.40625 L 28.824219 17.40625 L 28.824219 34.367188 L 31.378906 33.695312 L 31.378906 14.492188 L 32.539062 14.492188 L 32.539062 33.386719 L 35.09375 32.714844 L 35.09375 11.574219 L 36.257812 11.574219 L 36.257812 36.175781 C 36.261719 36.332031 36.265625 36.484375 36.265625 36.648438 C 36.265625 43.140625 31 48.425781 24.53125 48.425781 Z M 21.015625 46.671875 L 21.515625 46.820312 C 22.492188 47.113281 23.507812 47.257812 24.53125 47.257812 C 27.410156 47.257812 30.105469 46.109375 32.121094 44.027344 L 32.484375 43.652344 Z M 17.5 44.585938 L 17.710938 44.769531 C 18.207031 45.1875 18.742188 45.5625 19.296875 45.878906 L 19.347656 45.90625 L 33.5625 42.160156 L 33.59375 42.109375 C 33.925781 41.554688 34.207031 40.96875 34.4375 40.359375 L 34.535156 40.097656 Z M 15.457031 42.109375 L 15.5625 42.277344 C 15.84375 42.730469 16.160156 43.160156 16.5 43.558594 L 16.558594 43.628906 L 34.886719 38.796875 L 34.902344 38.707031 C 35.007812 38.1875 35.070312 37.65625 35.09375 37.128906 L 35.101562 36.929688 Z M 14.3125 39.398438 L 14.351562 39.539062 C 14.484375 40.011719 14.652344 40.480469 14.855469 40.9375 L 14.902344 41.050781 L 35.09375 35.726562 L 35.09375 33.917969 Z M 13.964844 37.105469 C 13.980469 37.425781 14.007812 37.757812 14.054688 38.089844 L 14.078125 38.253906 L 16.570312 37.597656 L 13.957031 36.90625 Z M 13.964844 35.703125 L 18.859375 36.996094 L 22.292969 36.089844 L 13.964844 33.894531 Z M 13.964844 35.703125 "/>
<path style=" stroke:none;fill-rule:nonzero;fill:rgb(0%,0%,0%);fill-opacity:1;" d="M 57.25 33.789062 C 57.25 34.164062 57.269531 34.464844 57.308594 34.695312 C 57.347656 34.925781 57.421875 35.105469 57.535156 35.226562 C 57.648438 35.347656 57.808594 35.433594 58.019531 35.484375 C 58.230469 35.535156 58.503906 35.5625 58.847656 35.574219 L 58.847656 36.132812 L 54.09375 36.132812 L 54.09375 35.574219 C 54.4375 35.5625 54.710938 35.535156 54.921875 35.484375 C 55.132812 35.433594 55.296875 35.351562 55.414062 35.234375 C 55.53125 35.117188 55.609375 34.949219 55.648438 34.734375 C 55.6875 34.519531 55.707031 34.238281 55.707031 33.894531 L 55.707031 30.699219 L 49.765625 30.699219 L 49.765625 33.789062 C 49.765625 34.164062 49.785156 34.464844 49.824219 34.695312 C 49.863281 34.925781 49.9375 35.105469 50.050781 35.226562 C 50.164062 35.347656 50.324219 35.433594 50.535156 35.484375 C 50.746094 35.535156 51.023438 35.5625 51.363281 35.574219 L 51.363281 36.132812 L 46.609375 36.132812 L 46.609375 35.574219 C 46.953125 35.5625 47.230469 35.535156 47.441406 35.484375 C 47.648438 35.433594 47.8125 35.351562 47.929688 35.234375 C 48.046875 35.117188 48.125 34.949219 48.164062 34.734375 C 48.203125 34.519531 48.226562 34.238281 48.226562 33.894531 L 48.226562 27.03125 C 48.226562 26.6875 48.207031 26.410156 48.171875 26.199219 C 48.136719 25.988281 48.070312 25.824219 47.96875 25.699219 C 47.863281 25.578125 47.714844 25.492188 47.519531 25.449219 C 47.324219 25.40625 47.070312 25.375 46.757812 25.355469 L 46.757812 24.792969 L 51.21875 24.792969 L 51.21875 25.355469 C 50.902344 25.363281 50.652344 25.394531 50.460938 25.441406 C 50.273438 25.492188 50.125 25.582031 50.023438 25.707031 C 49.917969 25.835938 49.851562 26.011719 49.816406 26.238281 C 49.78125 26.464844 49.765625 26.761719 49.765625 27.136719 L 49.765625 29.960938 L 55.707031 29.960938 L 55.707031 27.03125 C 55.707031 26.6875 55.691406 26.410156 55.65625 26.199219 C 55.621094 25.988281 55.554688 25.824219 55.449219 25.699219 C 55.347656 25.578125 55.199219 25.492188 55.003906 25.449219 C 54.808594 25.40625 54.554688 25.375 54.242188 25.355469 L 54.242188 24.792969 L 58.699219 24.792969 L 58.699219 25.355469 C 58.386719 25.363281 58.136719 25.394531 57.945312 25.441406 C 57.753906 25.492188 57.609375 25.582031 57.503906 25.707031 C 57.402344 25.835938 57.332031 26.011719 57.300781 26.238281 C 57.265625 26.464844 57.25 26.761719 57.25 27.136719 Z M 57.25 33.789062 "/>
<path style=" stroke:none;fill-rule:nonzero;fill:rgb(0%,0%,0%);fill-opacity:1;" d="M 64.644531 31.140625 L 64.644531 30.535156 C 64.644531 29.339844 64.136719 28.742188 63.117188 28.742188 C 62.949219 28.742188 62.808594 28.753906 62.691406 28.785156 C 62.574219 28.8125 62.476562 28.863281 62.398438 28.933594 C 62.320312 29 62.25 29.097656 62.1875 29.226562 C 62.121094 29.355469 62.0625 29.511719 62.003906 29.699219 C 61.894531 29.980469 61.789062 30.171875 61.6875 30.265625 C 61.585938 30.359375 61.433594 30.40625 61.238281 30.40625 C 60.75 30.40625 60.507812 30.160156 60.507812 29.667969 C 60.507812 29.195312 60.753906 28.832031 61.253906 28.570312 C 61.753906 28.3125 62.460938 28.179688 63.382812 28.179688 C 64.359375 28.179688 65.054688 28.355469 65.464844 28.703125 C 65.875 29.050781 66.082031 29.644531 66.082031 30.476562 L 66.082031 33.777344 C 66.082031 34.894531 66.300781 35.453125 66.742188 35.453125 C 66.878906 35.453125 67.011719 35.4375 67.136719 35.402344 C 67.265625 35.371094 67.371094 35.277344 67.460938 35.132812 L 67.667969 35.484375 C 67.550781 35.710938 67.332031 35.898438 67.019531 36.050781 C 66.707031 36.203125 66.378906 36.28125 66.039062 36.28125 C 65.609375 36.28125 65.285156 36.140625 65.078125 35.867188 C 64.867188 35.59375 64.761719 35.203125 64.761719 34.703125 L 64.6875 34.703125 C 64.433594 35.183594 64.082031 35.566406 63.632812 35.84375 C 63.179688 36.125 62.683594 36.265625 62.132812 36.265625 C 61.519531 36.265625 61.035156 36.105469 60.683594 35.792969 C 60.328125 35.480469 60.152344 35.058594 60.152344 34.527344 C 60.152344 34.292969 60.195312 34.066406 60.277344 33.851562 C 60.359375 33.632812 60.496094 33.429688 60.683594 33.230469 C 60.867188 33.035156 61.113281 32.839844 61.414062 32.648438 C 61.71875 32.457031 62.089844 32.265625 62.53125 32.066406 Z M 64.644531 31.773438 C 64.085938 31.988281 63.613281 32.199219 63.226562 32.40625 C 62.839844 32.613281 62.53125 32.820312 62.296875 33.023438 C 62.0625 33.230469 61.890625 33.4375 61.789062 33.644531 C 61.6875 33.851562 61.636719 34.0625 61.636719 34.277344 C 61.636719 34.601562 61.742188 34.867188 61.957031 35.070312 C 62.171875 35.277344 62.457031 35.382812 62.808594 35.382812 C 63.0625 35.382812 63.300781 35.316406 63.519531 35.191406 C 63.742188 35.0625 63.933594 34.886719 64.101562 34.667969 C 64.265625 34.445312 64.398438 34.1875 64.496094 33.886719 C 64.59375 33.585938 64.644531 33.269531 64.644531 32.9375 Z M 64.644531 31.773438 "/>
<path style=" stroke:none;fill-rule:nonzero;fill:rgb(0%,0%,0%);fill-opacity:1;" d="M 71.4375 36.28125 L 70.894531 36.28125 L 68.988281 30.152344 C 68.898438 29.878906 68.816406 29.65625 68.738281 29.492188 C 68.660156 29.324219 68.566406 29.191406 68.457031 29.09375 C 68.351562 28.996094 68.222656 28.929688 68.078125 28.894531 C 67.929688 28.859375 67.75 28.84375 67.535156 28.84375 L 67.535156 28.328125 L 71.421875 28.328125 L 71.421875 28.84375 C 71.042969 28.84375 70.773438 28.886719 70.617188 28.976562 C 70.457031 29.066406 70.382812 29.214844 70.382812 29.433594 C 70.382812 29.53125 70.394531 29.644531 70.425781 29.777344 C 70.453125 29.910156 70.492188 30.074219 70.542969 30.273438 L 71.539062 33.789062 L 71.597656 33.789062 L 73.753906 28.328125 L 74.210938 28.328125 L 76.160156 33.789062 L 76.222656 33.789062 L 77.101562 31.40625 C 77.21875 31.082031 77.316406 30.808594 77.394531 30.589844 C 77.472656 30.367188 77.535156 30.183594 77.578125 30.027344 C 77.621094 29.878906 77.652344 29.753906 77.671875 29.652344 C 77.691406 29.554688 77.703125 29.460938 77.703125 29.375 C 77.703125 29.160156 77.640625 29.015625 77.511719 28.945312 C 77.382812 28.878906 77.121094 28.84375 76.71875 28.84375 L 76.71875 28.328125 L 79.652344 28.328125 L 79.652344 28.84375 C 79.507812 28.84375 79.382812 28.867188 79.28125 28.910156 C 79.175781 28.953125 79.074219 29.039062 78.972656 29.167969 C 78.871094 29.296875 78.765625 29.476562 78.65625 29.710938 C 78.550781 29.949219 78.417969 30.257812 78.261719 30.640625 L 75.984375 36.28125 L 75.441406 36.28125 L 73.652344 30.847656 L 73.59375 30.847656 Z M 71.4375 36.28125 "/>
<path style=" stroke:none;fill-rule:nonzero;fill:rgb(0%,0%,0%);fill-opacity:1;" d="M 80.445312 29.257812 L 80.445312 28.710938 C 80.964844 28.40625 81.371094 28.101562 81.664062 27.796875 C 81.957031 27.496094 82.183594 27.132812 82.339844 26.707031 L 82.765625 26.707031 L 82.765625 28.5625 L 84.730469 28.5625 L 84.730469 29.257812 L 82.765625 29.257812 L 82.765625 33.730469 C 82.765625 34.074219 82.78125 34.367188 82.816406 34.601562 C 82.851562 34.835938 82.90625 35.027344 82.984375 35.167969 C 83.0625 35.308594 83.164062 35.410156 83.292969 35.46875 C 83.417969 35.527344 83.582031 35.558594 83.777344 35.558594 C 84.023438 35.558594 84.230469 35.507812 84.402344 35.402344 C 84.574219 35.300781 84.742188 35.125 84.90625 34.878906 L 85.273438 35.160156 C 85.136719 35.523438 84.898438 35.800781 84.5625 35.992188 C 84.226562 36.183594 83.808594 36.28125 83.308594 36.28125 C 82.664062 36.28125 82.171875 36.125 81.832031 35.816406 C 81.496094 35.507812 81.328125 35.0625 81.328125 34.484375 L 81.328125 29.257812 Z M 80.445312 29.257812 "/>
<path style=" stroke:none;fill-rule:nonzero;fill:rgb(0%,0%,0%);fill-opacity:1;" d="M 88.457031 33.789062 C 88.457031 34.195312 88.464844 34.511719 88.488281 34.75 C 88.503906 34.984375 88.558594 35.164062 88.640625 35.285156 C 88.722656 35.40625 88.84375 35.488281 89 35.527344 C 89.15625 35.566406 89.375 35.597656 89.660156 35.617188 L 89.660156 36.132812 L 85.757812 36.132812 L 85.757812 35.617188 C 86.039062 35.597656 86.265625 35.566406 86.433594 35.527344 C 86.597656 35.488281 86.726562 35.410156 86.8125 35.292969 C 86.902344 35.175781 86.957031 35.003906 86.984375 34.785156 C 87.007812 34.5625 87.019531 34.265625 87.019531 33.894531 L 87.019531 27.726562 C 87.019531 27.144531 87.011719 26.683594 86.996094 26.339844 C 86.984375 25.996094 86.953125 25.738281 86.917969 25.558594 C 86.894531 25.441406 86.863281 25.347656 86.820312 25.273438 C 86.777344 25.199219 86.710938 25.140625 86.621094 25.097656 C 86.535156 25.050781 86.417969 25.019531 86.269531 25 C 86.125 24.980469 85.941406 24.972656 85.726562 24.972656 L 85.726562 24.46875 L 88.429688 23.910156 L 88.429688 29.519531 L 88.488281 29.519531 C 88.632812 29.324219 88.816406 29.144531 89.035156 28.984375 C 89.257812 28.820312 89.496094 28.683594 89.75 28.5625 C 90.003906 28.445312 90.269531 28.351562 90.546875 28.285156 C 90.828125 28.214844 91.097656 28.179688 91.363281 28.179688 C 91.8125 28.179688 92.226562 28.261719 92.601562 28.417969 C 92.976562 28.574219 93.269531 28.785156 93.476562 29.050781 C 93.640625 29.277344 93.761719 29.574219 93.84375 29.941406 C 93.921875 30.308594 93.960938 30.808594 93.960938 31.433594 L 93.960938 33.789062 C 93.960938 34.195312 93.96875 34.511719 93.988281 34.742188 C 94.007812 34.972656 94.058594 35.152344 94.144531 35.277344 C 94.226562 35.40625 94.34375 35.488281 94.503906 35.527344 C 94.660156 35.566406 94.878906 35.597656 95.164062 35.617188 L 95.164062 36.132812 L 91.273438 36.132812 L 91.273438 35.617188 C 91.546875 35.609375 91.769531 35.578125 91.933594 35.535156 C 92.101562 35.492188 92.226562 35.410156 92.308594 35.292969 C 92.390625 35.175781 92.445312 35.003906 92.46875 34.785156 C 92.492188 34.5625 92.507812 34.265625 92.507812 33.894531 L 92.507812 32.039062 C 92.507812 30.941406 92.378906 30.15625 92.125 29.691406 C 91.871094 29.222656 91.445312 28.992188 90.847656 28.992188 C 90.386719 28.992188 89.96875 29.109375 89.59375 29.34375 C 89.21875 29.578125 88.921875 29.902344 88.707031 30.316406 C 88.65625 30.421875 88.617188 30.523438 88.582031 30.617188 C 88.546875 30.710938 88.519531 30.816406 88.5 30.933594 C 88.480469 31.050781 88.46875 31.1875 88.464844 31.339844 C 88.460938 31.492188 88.457031 31.679688 88.457031 31.90625 Z M 88.457031 33.789062 "/>
<path style=" stroke:none;fill-rule:nonzero;fill:rgb(0%,0%,0%);fill-opacity:1;" d="M 100.269531 28.179688 C 100.828125 28.179688 101.355469 28.28125 101.855469 28.484375 C 102.351562 28.683594 102.789062 28.960938 103.167969 29.316406 C 103.542969 29.667969 103.84375 30.085938 104.0625 30.574219 C 104.28125 31.058594 104.390625 31.59375 104.390625 32.171875 C 104.390625 32.769531 104.28125 33.320312 104.0625 33.820312 C 103.84375 34.320312 103.542969 34.753906 103.167969 35.117188 C 102.789062 35.480469 102.351562 35.765625 101.855469 35.96875 C 101.355469 36.175781 100.828125 36.28125 100.269531 36.28125 C 99.722656 36.28125 99.199219 36.179688 98.707031 35.976562 C 98.210938 35.777344 97.777344 35.496094 97.40625 35.132812 C 97.035156 34.765625 96.742188 34.332031 96.527344 33.828125 C 96.3125 33.324219 96.203125 32.769531 96.203125 32.171875 C 96.203125 31.59375 96.3125 31.058594 96.527344 30.566406 C 96.742188 30.074219 97.035156 29.652344 97.40625 29.300781 C 97.777344 28.945312 98.210938 28.671875 98.707031 28.476562 C 99.199219 28.277344 99.722656 28.179688 100.269531 28.179688 Z M 100.269531 28.886719 C 99.90625 28.886719 99.578125 28.96875 99.277344 29.125 C 98.980469 29.28125 98.726562 29.503906 98.515625 29.792969 C 98.304688 30.082031 98.144531 30.429688 98.03125 30.839844 C 97.917969 31.246094 97.863281 31.695312 97.863281 32.1875 C 97.863281 32.695312 97.917969 33.15625 98.03125 33.570312 C 98.144531 33.984375 98.304688 34.332031 98.515625 34.621094 C 98.726562 34.914062 98.976562 35.136719 99.269531 35.292969 C 99.566406 35.449219 99.898438 35.527344 100.269531 35.527344 C 100.640625 35.527344 100.976562 35.449219 101.28125 35.292969 C 101.585938 35.136719 101.84375 34.910156 102.058594 34.617188 C 102.273438 34.320312 102.441406 33.96875 102.558594 33.554688 C 102.675781 33.144531 102.734375 32.6875 102.734375 32.1875 C 102.734375 31.695312 102.675781 31.25 102.558594 30.847656 C 102.441406 30.445312 102.273438 30.097656 102.058594 29.808594 C 101.84375 29.519531 101.585938 29.292969 101.28125 29.128906 C 100.976562 28.96875 100.640625 28.886719 100.269531 28.886719 Z M 100.269531 28.886719 "/>
<path style=" stroke:none;fill-rule:nonzero;fill:rgb(0%,0%,0%);fill-opacity:1;" d="M 108.355469 33.789062 C 108.355469 34.195312 108.363281 34.511719 108.382812 34.75 C 108.402344 34.984375 108.453125 35.164062 108.539062 35.285156 C 108.621094 35.40625 108.738281 35.488281 108.898438 35.527344 C 109.050781 35.566406 109.273438 35.597656 109.558594 35.617188 L 109.558594 36.132812 L 105.652344 36.132812 L 105.652344 35.617188 C 105.9375 35.609375 106.160156 35.578125 106.328125 35.535156 C 106.496094 35.492188 106.621094 35.410156 106.710938 35.292969 C 106.796875 35.175781 106.855469 35.003906 106.878906 34.785156 C 106.902344 34.5625 106.914062 34.265625 106.914062 33.894531 L 106.914062 32.171875 C 106.914062 31.503906 106.910156 30.984375 106.894531 30.609375 C 106.878906 30.238281 106.832031 29.960938 106.746094 29.785156 C 106.664062 29.609375 106.535156 29.503906 106.359375 29.46875 C 106.183594 29.433594 105.9375 29.417969 105.625 29.417969 L 105.625 28.902344 L 108.191406 28.34375 L 108.398438 30.167969 L 108.457031 30.167969 C 108.585938 29.875 108.742188 29.605469 108.933594 29.359375 C 109.125 29.113281 109.332031 28.90625 109.558594 28.734375 C 109.78125 28.5625 110.015625 28.425781 110.261719 28.328125 C 110.507812 28.230469 110.753906 28.179688 111.007812 28.179688 C 111.324219 28.179688 111.570312 28.257812 111.75 28.410156 C 111.929688 28.5625 112.023438 28.765625 112.023438 29.019531 C 112.023438 29.257812 111.949219 29.441406 111.800781 29.574219 C 111.65625 29.703125 111.445312 29.769531 111.171875 29.769531 C 111.015625 29.769531 110.882812 29.753906 110.773438 29.710938 C 110.667969 29.671875 110.570312 29.632812 110.488281 29.585938 C 110.40625 29.542969 110.328125 29.5 110.253906 29.460938 C 110.179688 29.421875 110.101562 29.402344 110.011719 29.402344 C 109.746094 29.402344 109.484375 29.574219 109.21875 29.910156 C 108.957031 30.25 108.75 30.679688 108.601562 31.199219 C 108.523438 31.484375 108.464844 31.804688 108.417969 32.164062 C 108.375 32.523438 108.355469 32.898438 108.355469 33.289062 Z M 108.355469 33.789062 "/>
<path style=" stroke:none;fill-rule:nonzero;fill:rgb(0%,0%,0%);fill-opacity:1;" d="M 115.265625 33.820312 C 115.265625 34.222656 115.273438 34.539062 115.292969 34.769531 C 115.3125 35 115.363281 35.179688 115.449219 35.300781 C 115.53125 35.421875 115.652344 35.503906 115.816406 35.542969 C 115.976562 35.582031 116.199219 35.613281 116.484375 35.632812 L 116.484375 36.132812 L 112.636719 36.132812 L 112.636719 35.632812 C 112.914062 35.613281 113.128906 35.582031 113.292969 35.542969 C 113.453125 35.503906 113.578125 35.425781 113.664062 35.308594 C 113.753906 35.191406 113.808594 35.023438 113.835938 34.808594 C 113.859375 34.589844 113.871094 34.296875 113.871094 33.921875 L 113.871094 31.964844 C 113.871094 30.796875 113.839844 30.085938 113.78125 29.832031 C 113.753906 29.703125 113.714844 29.597656 113.671875 29.511719 C 113.628906 29.429688 113.5625 29.367188 113.476562 29.320312 C 113.386719 29.277344 113.273438 29.25 113.136719 29.234375 C 113 29.21875 112.824219 29.210938 112.609375 29.210938 L 112.609375 28.742188 L 114.957031 28.179688 L 115.132812 29.640625 L 115.191406 29.640625 C 115.5625 29.179688 116 28.820312 116.496094 28.5625 C 116.996094 28.308594 117.539062 28.179688 118.125 28.179688 C 118.578125 28.179688 118.984375 28.253906 119.359375 28.402344 C 119.730469 28.550781 120.011719 28.75 120.210938 29.003906 C 120.375 29.230469 120.492188 29.523438 120.5625 29.882812 C 120.628906 30.238281 120.664062 30.734375 120.664062 31.363281 L 120.664062 33.820312 C 120.664062 34.222656 120.675781 34.539062 120.699219 34.769531 C 120.726562 35 120.777344 35.179688 120.855469 35.300781 C 120.933594 35.421875 121.054688 35.503906 121.214844 35.542969 C 121.375 35.582031 121.589844 35.613281 121.851562 35.632812 L 121.851562 36.132812 L 118.050781 36.132812 L 118.050781 35.632812 C 118.328125 35.621094 118.542969 35.59375 118.707031 35.550781 C 118.867188 35.507812 118.988281 35.425781 119.074219 35.308594 C 119.15625 35.191406 119.210938 35.019531 119.234375 34.800781 C 119.257812 34.578125 119.269531 34.285156 119.269531 33.921875 L 119.269531 31.980469 C 119.269531 31.421875 119.242188 30.949219 119.183594 30.566406 C 119.125 30.183594 119.027344 29.875 118.894531 29.640625 C 118.765625 29.402344 118.589844 29.234375 118.375 29.128906 C 118.160156 29.027344 117.902344 28.976562 117.597656 28.976562 C 117.15625 28.976562 116.753906 29.089844 116.386719 29.320312 C 116.019531 29.554688 115.734375 29.871094 115.527344 30.273438 C 115.480469 30.371094 115.4375 30.464844 115.402344 30.550781 C 115.371094 30.640625 115.34375 30.742188 115.324219 30.859375 C 115.304688 30.980469 115.289062 31.113281 115.28125 31.265625 C 115.269531 31.417969 115.265625 31.613281 115.265625 31.847656 Z M 115.265625 33.820312 "/>
<path style=" stroke:none;fill-rule:nonzero;fill:rgb(0%,0%,0%);fill-opacity:1;" d="M 129.863281 34.761719 C 129.03125 35.773438 128 36.28125 126.769531 36.28125 C 126.191406 36.28125 125.667969 36.183594 125.199219 35.992188 C 124.730469 35.800781 124.324219 35.53125 123.988281 35.183594 C 123.652344 34.832031 123.386719 34.417969 123.203125 33.929688 C 123.015625 33.445312 122.925781 32.90625 122.925781 32.320312 C 122.925781 31.71875 123.023438 31.164062 123.21875 30.65625 C 123.414062 30.144531 123.6875 29.707031 124.046875 29.34375 C 124.402344 28.980469 124.828125 28.695312 125.324219 28.492188 C 125.816406 28.285156 126.359375 28.179688 126.945312 28.179688 C 127.894531 28.179688 128.628906 28.4375 129.144531 28.953125 C 129.664062 29.46875 129.921875 30.207031 129.921875 31.171875 C 129.921875 31.308594 129.898438 31.390625 129.84375 31.421875 C 129.789062 31.449219 129.664062 31.464844 129.46875 31.464844 L 124.640625 31.464844 C 124.621094 31.542969 124.605469 31.640625 124.597656 31.75 C 124.585938 31.863281 124.582031 31.988281 124.582031 32.128906 C 124.582031 32.636719 124.644531 33.101562 124.765625 33.519531 C 124.886719 33.9375 125.0625 34.292969 125.292969 34.585938 C 125.523438 34.878906 125.796875 35.109375 126.117188 35.269531 C 126.433594 35.433594 126.789062 35.515625 127.179688 35.515625 C 127.589844 35.515625 127.972656 35.421875 128.324219 35.242188 C 128.675781 35.058594 129.039062 34.761719 129.410156 34.351562 Z M 127.445312 30.789062 C 127.640625 30.789062 127.796875 30.78125 127.914062 30.773438 C 128.03125 30.761719 128.117188 30.742188 128.175781 30.714844 C 128.234375 30.683594 128.273438 30.644531 128.292969 30.589844 C 128.3125 30.535156 128.324219 30.464844 128.324219 30.375 C 128.324219 29.925781 128.179688 29.5625 127.890625 29.292969 C 127.601562 29.023438 127.207031 28.886719 126.710938 28.886719 C 125.652344 28.886719 124.996094 29.519531 124.742188 30.789062 Z M 127.445312 30.789062 "/>
<path style=" stroke:none;fill-rule:nonzero;fill:rgb(0%,0%,0%);fill-opacity:1;" d="M 144.933594 24.792969 L 145.34375 24.792969 L 145.476562 28.179688 L 144.933594 28.179688 C 144.71875 27.316406 144.304688 26.640625 143.6875 26.148438 C 143.070312 25.660156 142.328125 25.414062 141.457031 25.414062 C 140.859375 25.414062 140.328125 25.53125 139.855469 25.765625 C 139.386719 26 138.992188 26.339844 138.667969 26.78125 C 138.34375 27.222656 138.097656 27.765625 137.925781 28.402344 C 137.753906 29.039062 137.671875 29.761719 137.671875 30.566406 C 137.671875 32.148438 137.996094 33.363281 138.652344 34.210938 C 139.308594 35.058594 140.257812 35.484375 141.5 35.484375 C 143.386719 35.484375 144.601562 34.476562 145.140625 32.464844 L 145.742188 32.464844 L 145.742188 36.132812 L 145.226562 36.132812 L 144.890625 34.96875 C 143.863281 35.84375 142.621094 36.28125 141.164062 36.28125 C 140.332031 36.28125 139.582031 36.148438 138.910156 35.882812 C 138.238281 35.617188 137.667969 35.242188 137.195312 34.753906 C 136.71875 34.269531 136.351562 33.679688 136.09375 32.980469 C 135.832031 32.285156 135.703125 31.507812 135.703125 30.65625 C 135.703125 29.761719 135.839844 28.945312 136.113281 28.210938 C 136.390625 27.472656 136.773438 26.839844 137.265625 26.3125 C 137.761719 25.78125 138.351562 25.371094 139.042969 25.082031 C 139.730469 24.792969 140.492188 24.648438 141.324219 24.648438 C 141.910156 24.648438 142.464844 24.730469 142.980469 24.898438 C 143.5 25.0625 144.0625 25.335938 144.667969 25.707031 Z M 144.933594 24.792969 "/>
<path style=" stroke:none;fill-rule:nonzero;fill:rgb(0%,0%,0%);fill-opacity:1;" d="M 151.710938 31.140625 L 151.710938 30.535156 C 151.710938 29.339844 151.203125 28.742188 150.1875 28.742188 C 150.019531 28.742188 149.878906 28.753906 149.761719 28.785156 C 149.644531 28.8125 149.542969 28.863281 149.464844 28.933594 C 149.386719 29 149.316406 29.097656 149.253906 29.226562 C 149.191406 29.355469 149.128906 29.511719 149.070312 29.699219 C 148.964844 29.980469 148.859375 30.171875 148.753906 30.265625 C 148.652344 30.359375 148.503906 30.40625 148.308594 30.40625 C 147.820312 30.40625 147.574219 30.160156 147.574219 29.667969 C 147.574219 29.195312 147.824219 28.832031 148.320312 28.570312 C 148.820312 28.3125 149.53125 28.179688 150.449219 28.179688 C 151.429688 28.179688 152.121094 28.355469 152.535156 28.703125 C 152.945312 29.050781 153.148438 29.644531 153.148438 30.476562 L 153.148438 33.777344 C 153.148438 34.894531 153.371094 35.453125 153.808594 35.453125 C 153.945312 35.453125 154.078125 35.4375 154.207031 35.402344 C 154.332031 35.371094 154.441406 35.277344 154.527344 35.132812 L 154.734375 35.484375 C 154.617188 35.710938 154.402344 35.898438 154.089844 36.050781 C 153.773438 36.203125 153.449219 36.28125 153.105469 36.28125 C 152.675781 36.28125 152.355469 36.140625 152.144531 35.867188 C 151.933594 35.59375 151.828125 35.203125 151.828125 34.703125 L 151.753906 34.703125 C 151.5 35.183594 151.148438 35.566406 150.699219 35.84375 C 150.25 36.125 149.75 36.265625 149.203125 36.265625 C 148.585938 36.265625 148.101562 36.105469 147.75 35.792969 C 147.398438 35.480469 147.222656 35.058594 147.222656 34.527344 C 147.222656 34.292969 147.261719 34.066406 147.347656 33.851562 C 147.429688 33.632812 147.5625 33.429688 147.75 33.230469 C 147.9375 33.035156 148.179688 32.839844 148.484375 32.648438 C 148.789062 32.457031 149.160156 32.265625 149.597656 32.066406 Z M 151.710938 31.773438 C 151.152344 31.988281 150.683594 32.199219 150.296875 32.40625 C 149.910156 32.613281 149.597656 32.820312 149.363281 33.023438 C 149.128906 33.230469 148.960938 33.4375 148.859375 33.644531 C 148.753906 33.851562 148.703125 34.0625 148.703125 34.277344 C 148.703125 34.601562 148.8125 34.867188 149.027344 35.070312 C 149.242188 35.277344 149.527344 35.382812 149.878906 35.382812 C 150.132812 35.382812 150.367188 35.316406 150.589844 35.191406 C 150.808594 35.0625 151.003906 34.886719 151.167969 34.667969 C 151.335938 34.445312 151.46875 34.1875 151.566406 33.886719 C 151.664062 33.585938 151.710938 33.269531 151.710938 32.9375 Z M 151.710938 31.773438 "/>
<path style=" stroke:none;fill-rule:nonzero;fill:rgb(0%,0%,0%);fill-opacity:1;" d="M 157.800781 29.386719 L 157.859375 29.386719 C 158.171875 29.015625 158.511719 28.722656 158.871094 28.503906 C 159.234375 28.289062 159.65625 28.179688 160.132812 28.179688 C 160.691406 28.179688 161.203125 28.28125 161.667969 28.484375 C 162.132812 28.683594 162.535156 28.964844 162.878906 29.328125 C 163.21875 29.691406 163.488281 30.121094 163.675781 30.617188 C 163.867188 31.113281 163.964844 31.65625 163.964844 32.246094 C 163.964844 32.84375 163.867188 33.390625 163.671875 33.886719 C 163.476562 34.382812 163.207031 34.808594 162.863281 35.160156 C 162.519531 35.515625 162.113281 35.789062 161.644531 35.984375 C 161.175781 36.179688 160.667969 36.28125 160.121094 36.28125 C 159.667969 36.28125 159.261719 36.203125 158.894531 36.050781 C 158.527344 35.898438 158.183594 35.652344 157.859375 35.308594 L 157.859375 37.457031 C 157.859375 37.851562 157.878906 38.164062 157.917969 38.398438 C 157.957031 38.636719 158.035156 38.816406 158.152344 38.945312 C 158.269531 39.070312 158.4375 39.160156 158.660156 39.210938 C 158.878906 39.257812 159.171875 39.289062 159.53125 39.296875 L 159.53125 39.8125 L 155.011719 39.8125 L 155.011719 39.296875 C 155.304688 39.289062 155.542969 39.257812 155.726562 39.210938 C 155.90625 39.160156 156.046875 39.070312 156.148438 38.945312 C 156.253906 38.816406 156.324219 38.644531 156.363281 38.421875 C 156.402344 38.199219 156.421875 37.914062 156.421875 37.558594 L 156.421875 32.054688 C 156.421875 31.484375 156.414062 31.019531 156.398438 30.65625 C 156.386719 30.292969 156.359375 30.039062 156.320312 29.902344 C 156.269531 29.667969 156.15625 29.507812 155.980469 29.425781 C 155.804688 29.339844 155.472656 29.300781 154.984375 29.300781 L 154.984375 28.800781 L 157.800781 28.238281 Z M 158.242188 29.816406 C 158.113281 30.011719 158.019531 30.246094 157.957031 30.515625 C 157.890625 30.785156 157.859375 31.136719 157.859375 31.566406 L 157.859375 32.714844 C 157.859375 32.980469 157.867188 33.210938 157.882812 33.402344 C 157.894531 33.59375 157.917969 33.757812 157.949219 33.894531 C 157.976562 34.03125 158.015625 34.15625 158.066406 34.261719 C 158.113281 34.371094 158.175781 34.472656 158.257812 34.570312 C 158.480469 34.886719 158.75 35.128906 159.0625 35.300781 C 159.375 35.472656 159.703125 35.558594 160.046875 35.558594 C 160.722656 35.558594 161.265625 35.273438 161.683594 34.703125 C 162.097656 34.136719 162.304688 33.335938 162.304688 32.304688 C 162.304688 31.792969 162.25 31.332031 162.136719 30.914062 C 162.023438 30.496094 161.867188 30.136719 161.660156 29.835938 C 161.453125 29.539062 161.207031 29.304688 160.917969 29.136719 C 160.628906 28.972656 160.308594 28.886719 159.957031 28.886719 C 159.605469 28.886719 159.28125 28.96875 158.980469 29.128906 C 158.683594 29.292969 158.4375 29.519531 158.242188 29.816406 Z M 158.242188 29.816406 "/>
<path style=" stroke:none;fill-rule:nonzero;fill:rgb(0%,0%,0%);fill-opacity:1;" d="M 168.027344 33.789062 C 168.027344 34.175781 168.042969 34.480469 168.078125 34.710938 C 168.113281 34.941406 168.179688 35.125 168.277344 35.257812 C 168.375 35.386719 168.511719 35.480469 168.6875 35.527344 C 168.863281 35.578125 169.097656 35.609375 169.394531 35.617188 L 169.394531 36.132812 L 165.179688 36.132812 L 165.179688 35.617188 C 165.476562 35.609375 165.714844 35.574219 165.902344 35.519531 C 166.085938 35.46875 166.230469 35.378906 166.332031 35.257812 C 166.4375 35.132812 166.503906 34.960938 166.539062 34.742188 C 166.574219 34.519531 166.589844 34.238281 166.589844 33.894531 L 166.589844 32.007812 C 166.589844 31.441406 166.582031 30.972656 166.566406 30.601562 C 166.554688 30.234375 166.527344 29.980469 166.488281 29.84375 C 166.4375 29.621094 166.324219 29.464844 166.148438 29.382812 C 165.972656 29.296875 165.640625 29.257812 165.152344 29.257812 L 165.152344 28.742188 L 168.027344 28.179688 Z M 166.339844 25.191406 C 166.339844 24.9375 166.429688 24.722656 166.605469 24.542969 C 166.78125 24.367188 166.996094 24.277344 167.25 24.277344 C 167.503906 24.277344 167.71875 24.367188 167.894531 24.542969 C 168.070312 24.722656 168.160156 24.9375 168.160156 25.191406 C 168.160156 25.445312 168.070312 25.664062 167.894531 25.839844 C 167.71875 26.015625 167.503906 26.105469 167.25 26.105469 C 166.996094 26.105469 166.78125 26.015625 166.605469 25.839844 C 166.429688 25.664062 166.339844 25.445312 166.339844 25.191406 Z M 166.339844 25.191406 "/>
<path style=" stroke:none;fill-rule:nonzero;fill:rgb(0%,0%,0%);fill-opacity:1;" d="M 170.273438 29.257812 L 170.273438 28.710938 C 170.792969 28.40625 171.199219 28.101562 171.492188 27.796875 C 171.785156 27.496094 172.007812 27.132812 172.164062 26.707031 L 172.589844 26.707031 L 172.589844 28.5625 L 174.558594 28.5625 L 174.558594 29.257812 L 172.589844 29.257812 L 172.589844 33.730469 C 172.589844 34.074219 172.609375 34.367188 172.644531 34.601562 C 172.675781 34.835938 172.734375 35.027344 172.8125 35.167969 C 172.890625 35.308594 172.992188 35.410156 173.121094 35.46875 C 173.246094 35.527344 173.40625 35.558594 173.605469 35.558594 C 173.847656 35.558594 174.054688 35.507812 174.226562 35.402344 C 174.398438 35.300781 174.566406 35.125 174.734375 34.878906 L 175.101562 35.160156 C 174.964844 35.523438 174.726562 35.800781 174.390625 35.992188 C 174.050781 36.183594 173.632812 36.28125 173.132812 36.28125 C 172.488281 36.28125 171.996094 36.125 171.660156 35.816406 C 171.320312 35.507812 171.152344 35.0625 171.152344 34.484375 L 171.152344 29.257812 Z M 170.273438 29.257812 "/>
<path style=" stroke:none;fill-rule:nonzero;fill:rgb(0%,0%,0%);fill-opacity:1;" d="M 180.351562 31.140625 L 180.351562 30.535156 C 180.351562 29.339844 179.84375 28.742188 178.828125 28.742188 C 178.660156 28.742188 178.519531 28.753906 178.402344 28.785156 C 178.285156 28.8125 178.1875 28.863281 178.109375 28.933594 C 178.03125 29 177.960938 29.097656 177.894531 29.226562 C 177.832031 29.355469 177.769531 29.511719 177.710938 29.699219 C 177.605469 29.980469 177.5 30.171875 177.398438 30.265625 C 177.292969 30.359375 177.144531 30.40625 176.949219 30.40625 C 176.460938 30.40625 176.214844 30.160156 176.214844 29.667969 C 176.214844 29.195312 176.464844 28.832031 176.964844 28.570312 C 177.460938 28.3125 178.171875 28.179688 179.089844 28.179688 C 180.070312 28.179688 180.765625 28.355469 181.175781 28.703125 C 181.585938 29.050781 181.792969 29.644531 181.792969 30.476562 L 181.792969 33.777344 C 181.792969 34.894531 182.011719 35.453125 182.453125 35.453125 C 182.589844 35.453125 182.71875 35.4375 182.847656 35.402344 C 182.972656 35.371094 183.082031 35.277344 183.171875 35.132812 L 183.375 35.484375 C 183.257812 35.710938 183.042969 35.898438 182.730469 36.050781 C 182.417969 36.203125 182.089844 36.28125 181.746094 36.28125 C 181.316406 36.28125 180.996094 36.140625 180.785156 35.867188 C 180.578125 35.59375 180.472656 35.203125 180.472656 34.703125 L 180.398438 34.703125 C 180.140625 35.183594 179.789062 35.566406 179.339844 35.84375 C 178.890625 36.125 178.390625 36.265625 177.84375 36.265625 C 177.226562 36.265625 176.742188 36.105469 176.390625 35.792969 C 176.039062 35.480469 175.863281 35.058594 175.863281 34.527344 C 175.863281 34.292969 175.90625 34.066406 175.988281 33.851562 C 176.070312 33.632812 176.207031 33.429688 176.390625 33.230469 C 176.578125 33.035156 176.820312 32.839844 177.125 32.648438 C 177.429688 32.457031 177.800781 32.265625 178.242188 32.066406 Z M 180.351562 31.773438 C 179.796875 31.988281 179.324219 32.199219 178.9375 32.40625 C 178.550781 32.613281 178.242188 32.820312 178.003906 33.023438 C 177.769531 33.230469 177.601562 33.4375 177.5 33.644531 C 177.398438 33.851562 177.34375 34.0625 177.34375 34.277344 C 177.34375 34.601562 177.453125 34.867188 177.667969 35.070312 C 177.882812 35.277344 178.167969 35.382812 178.519531 35.382812 C 178.773438 35.382812 179.011719 35.316406 179.230469 35.191406 C 179.449219 35.0625 179.644531 34.886719 179.8125 34.667969 C 179.976562 34.445312 180.109375 34.1875 180.207031 33.886719 C 180.304688 33.585938 180.351562 33.269531 180.351562 32.9375 Z M 180.351562 31.773438 "/>
<path style=" stroke:none;fill-rule:nonzero;fill:rgb(0%,0%,0%);fill-opacity:1;" d="M 186.429688 33.835938 C 186.429688 34.207031 186.441406 34.507812 186.472656 34.734375 C 186.5 34.960938 186.5625 35.136719 186.65625 35.261719 C 186.75 35.390625 186.878906 35.480469 187.050781 35.527344 C 187.222656 35.578125 187.449219 35.609375 187.734375 35.617188 L 187.734375 36.132812 L 183.683594 36.132812 L 183.683594 35.617188 C 183.976562 35.609375 184.210938 35.574219 184.386719 35.519531 C 184.566406 35.46875 184.703125 35.382812 184.808594 35.261719 C 184.910156 35.144531 184.976562 34.980469 185.011719 34.769531 C 185.046875 34.558594 185.0625 34.28125 185.0625 33.9375 L 185.0625 27.59375 C 185.0625 27.0625 185.054688 26.617188 185.042969 26.257812 C 185.027344 25.902344 185.003906 25.660156 184.976562 25.53125 C 184.925781 25.304688 184.8125 25.152344 184.628906 25.074219 C 184.449219 24.996094 184.125 24.957031 183.65625 24.957031 L 183.65625 24.457031 L 186.429688 23.910156 Z M 186.429688 33.835938 "/>
</g>
</svg>
