<svg id="Sierra_Solutions_Logo_Footer" data-name="Sierra Solutions Logo Footer" xmlns="http://www.w3.org/2000/svg" width="191.022" height="51.185" viewBox="0 0 191.022 51.185">
  <g id="Group_111862" data-name="Group 111862" transform="translate(-1290.473 -348.332)">
    <g id="Group_111856" data-name="Group 111856" transform="translate(1375.594 354.332)">
      <path id="Path_98321" data-name="Path 98321" d="M2.5-18.536,4.6-21.63A21.907,21.907,0,0,0,7.733-19.82a7.861,7.861,0,0,0,3.384.76,5.334,5.334,0,0,0,1.657-.235A4.17,4.17,0,0,0,13.99-19.9a2.509,2.509,0,0,0,.746-.856,2.072,2.072,0,0,0,.249-.953,1.523,1.523,0,0,0-.373-1.036,2.8,2.8,0,0,0-.994-.7,8.062,8.062,0,0,0-1.464-.47q-.842-.193-1.754-.359-.608-.11-1.409-.262a15.562,15.562,0,0,1-1.657-.414,10.14,10.14,0,0,1-1.685-.691,6.163,6.163,0,0,1-1.492-1.077,4.977,4.977,0,0,1-1.063-1.547,5.15,5.15,0,0,1-.4-2.113,5.549,5.549,0,0,1,.718-2.942,5.436,5.436,0,0,1,1.837-1.851,7.711,7.711,0,0,1,2.486-.953,13.317,13.317,0,0,1,2.638-.276,13.882,13.882,0,0,1,2.265.166,10.073,10.073,0,0,1,1.851.483,10.28,10.28,0,0,1,1.671.8q.815.483,1.754,1.146l-2.154,3.038A13.88,13.88,0,0,0,13-32.291a7.511,7.511,0,0,0-2.79-.525,5.968,5.968,0,0,0-1.132.124,4.853,4.853,0,0,0-1.2.4,2.928,2.928,0,0,0-.939.7,1.523,1.523,0,0,0-.373,1.036A1.345,1.345,0,0,0,7-29.529a3.578,3.578,0,0,0,1.132.691,10.542,10.542,0,0,0,1.519.47q.829.193,1.6.387.58.138,1.367.276a14.809,14.809,0,0,1,1.63.387,10.172,10.172,0,0,1,1.671.663A5.646,5.646,0,0,1,17.4-25.593a4.94,4.94,0,0,1,1.05,1.6,5.946,5.946,0,0,1,.4,2.306A6.3,6.3,0,0,1,18.3-18.95a5.072,5.072,0,0,1-1.574,1.92,7.244,7.244,0,0,1-2.431,1.146,11.778,11.778,0,0,1-3.121.387A14.6,14.6,0,0,1,8.4-15.732a12.067,12.067,0,0,1-2.2-.635,11.981,11.981,0,0,1-1.878-.953Q3.438-17.873,2.5-18.536Zm23.7,2.652H22.331V-36.076H26.2Zm8.48-16.794v5.055h9.778v3.508H34.678v4.751H45.7v3.48H30.839V-36.1H45.7v3.425ZM53.323-15.884H49.483V-36.1h9.17a7.594,7.594,0,0,1,2.831.511,6.317,6.317,0,0,1,2.2,1.436,6.566,6.566,0,0,1,1.423,2.21,7.517,7.517,0,0,1,.511,2.8,7.03,7.03,0,0,1-1.146,4.005,6.4,6.4,0,0,1-3.052,2.458q2.569,3.37,5.055,6.795H61.858q-1.215-1.574-2.375-3.176t-2.32-3.259H53.323Zm0-9.861h5.331a3.17,3.17,0,0,0,1.091-.207,2.836,2.836,0,0,0,1.008-.635,3.462,3.462,0,0,0,.732-1.063,3.563,3.563,0,0,0,.29-1.492,5.99,5.99,0,0,0-.11-1.05,3.435,3.435,0,0,0-.442-1.16,2.859,2.859,0,0,0-.939-.939,3.006,3.006,0,0,0-1.63-.387H53.323Zm19.749,9.861H69.232V-36.1H78.4a7.594,7.594,0,0,1,2.831.511,6.317,6.317,0,0,1,2.2,1.436,6.566,6.566,0,0,1,1.422,2.21,7.516,7.516,0,0,1,.511,2.8,7.03,7.03,0,0,1-1.146,4.005,6.4,6.4,0,0,1-3.052,2.458q2.569,3.37,5.055,6.795H81.607q-1.215-1.574-2.375-3.176t-2.32-3.259H73.072Zm0-9.861H78.4a3.17,3.17,0,0,0,1.091-.207,2.835,2.835,0,0,0,1.008-.635,3.462,3.462,0,0,0,.732-1.063,3.563,3.563,0,0,0,.29-1.492,5.988,5.988,0,0,0-.11-1.05,3.435,3.435,0,0,0-.442-1.16,2.859,2.859,0,0,0-.939-.939,3.006,3.006,0,0,0-1.63-.387H73.072Zm14.28,9.861,10.33-20.191h.387L108.4-15.884h-4.2l-1.574-3.176H93.1l-1.547,3.176Zm7.624-6.546h5.773l-2.873-6.1Z" transform="translate(-2.499 36.407)"/>
      <path id="Path_98322" data-name="Path 98322" d="M1.428-9.421,2.769-11.4a13.992,13.992,0,0,0,2,1.156,5.021,5.021,0,0,0,2.161.485,3.407,3.407,0,0,0,1.058-.15,2.663,2.663,0,0,0,.776-.388,1.6,1.6,0,0,0,.476-.547A1.324,1.324,0,0,0,9.4-11.45a.973.973,0,0,0-.238-.662,1.789,1.789,0,0,0-.635-.45,5.149,5.149,0,0,0-.935-.3q-.538-.123-1.12-.229-.388-.071-.9-.168a9.937,9.937,0,0,1-1.058-.265,6.476,6.476,0,0,1-1.076-.441,3.937,3.937,0,0,1-.953-.688,3.179,3.179,0,0,1-.679-.988,3.289,3.289,0,0,1-.256-1.35,3.544,3.544,0,0,1,.459-1.879A3.472,3.472,0,0,1,3.183-20.05a4.925,4.925,0,0,1,1.588-.609,8.5,8.5,0,0,1,1.685-.176,8.867,8.867,0,0,1,1.447.106,6.434,6.434,0,0,1,1.182.309,6.565,6.565,0,0,1,1.067.512q.52.309,1.12.732L9.9-17.236a8.865,8.865,0,0,0-1.764-.97,4.8,4.8,0,0,0-1.782-.335,3.813,3.813,0,0,0-.723.079,3.1,3.1,0,0,0-.767.256,1.87,1.87,0,0,0-.6.45.973.973,0,0,0-.238.662.859.859,0,0,0,.282.653A2.285,2.285,0,0,0,5.027-16a6.733,6.733,0,0,0,.97.3q.529.123,1.023.247.37.088.873.176a9.457,9.457,0,0,1,1.041.247A6.5,6.5,0,0,1,10-14.608a3.606,3.606,0,0,1,.944.679,3.155,3.155,0,0,1,.67,1.023,3.8,3.8,0,0,1,.256,1.473,4.025,4.025,0,0,1-.353,1.746A3.239,3.239,0,0,1,10.513-8.46a4.627,4.627,0,0,1-1.552.732,7.522,7.522,0,0,1-1.993.247,9.324,9.324,0,0,1-1.773-.15,7.707,7.707,0,0,1-1.4-.406,7.652,7.652,0,0,1-1.2-.609Q2.028-9,1.428-9.421ZM19.863-7.481A6.433,6.433,0,0,1,17.27-8.01a6.82,6.82,0,0,1-2.126-1.438,6.82,6.82,0,0,1-1.438-2.126,6.476,6.476,0,0,1-.529-2.611,6.5,6.5,0,0,1,.529-2.6,6.792,6.792,0,0,1,1.438-2.135,6.821,6.821,0,0,1,2.126-1.438,6.433,6.433,0,0,1,2.593-.529,6.476,6.476,0,0,1,2.611.529A6.821,6.821,0,0,1,24.6-18.921a6.793,6.793,0,0,1,1.438,2.135,6.5,6.5,0,0,1,.529,2.6,6.476,6.476,0,0,1-.529,2.611A6.821,6.821,0,0,1,24.6-9.448,6.821,6.821,0,0,1,22.474-8.01,6.476,6.476,0,0,1,19.863-7.481Zm0-11.1a3.821,3.821,0,0,0-1.649.362,4.477,4.477,0,0,0-1.341.961,4.539,4.539,0,0,0-.909,1.4,4.285,4.285,0,0,0-.335,1.667,4.265,4.265,0,0,0,.335,1.676,4.682,4.682,0,0,0,.909,1.4,4.4,4.4,0,0,0,1.341.97,3.821,3.821,0,0,0,1.649.362,3.821,3.821,0,0,0,1.649-.362,4.4,4.4,0,0,0,1.341-.97,4.682,4.682,0,0,0,.909-1.4,4.265,4.265,0,0,0,.335-1.676,4.285,4.285,0,0,0-.335-1.667,4.539,4.539,0,0,0-.909-1.4,4.477,4.477,0,0,0-1.341-.961A3.821,3.821,0,0,0,19.863-18.577ZM38.034-9.915v2.188h-9.3V-20.641h2.47V-9.915ZM44.755-7.5a6.373,6.373,0,0,1-2.276-.388A5.009,5.009,0,0,1,40.733-8.98a4.836,4.836,0,0,1-1.12-1.711,6.055,6.055,0,0,1-.4-2.24v-7.692h2.47v7.692A3.58,3.58,0,0,0,42-11.326a2.925,2.925,0,0,0,.785,1.006,2.721,2.721,0,0,0,1.006.512,3.837,3.837,0,0,0,.961.141,3.837,3.837,0,0,0,.961-.141,2.721,2.721,0,0,0,1.006-.512,2.925,2.925,0,0,0,.785-1.006,3.58,3.58,0,0,0,.318-1.605v-7.692h2.47v7.692a6.177,6.177,0,0,1-.388,2.24A4.738,4.738,0,0,1,48.795-8.98a5.009,5.009,0,0,1-1.746,1.094A6.425,6.425,0,0,1,44.755-7.5ZM61.25-18.454H57.563V-7.728h-2.47V-18.454h-3.7v-2.188H61.25Zm4.2,10.726h-2.47v-12.9h2.47Zm9.085.247A6.433,6.433,0,0,1,71.94-8.01a6.82,6.82,0,0,1-2.126-1.438,6.821,6.821,0,0,1-1.438-2.126,6.477,6.477,0,0,1-.529-2.611,6.5,6.5,0,0,1,.529-2.6,6.793,6.793,0,0,1,1.438-2.135,6.821,6.821,0,0,1,2.126-1.438,6.433,6.433,0,0,1,2.593-.529,6.476,6.476,0,0,1,2.611.529,6.821,6.821,0,0,1,2.126,1.438,6.793,6.793,0,0,1,1.438,2.135,6.5,6.5,0,0,1,.529,2.6,6.477,6.477,0,0,1-.529,2.611A6.82,6.82,0,0,1,79.27-9.448,6.82,6.82,0,0,1,77.145-8.01,6.476,6.476,0,0,1,74.534-7.481Zm0-11.1a3.821,3.821,0,0,0-1.649.362,4.477,4.477,0,0,0-1.341.961,4.539,4.539,0,0,0-.909,1.4,4.285,4.285,0,0,0-.335,1.667,4.265,4.265,0,0,0,.335,1.676,4.681,4.681,0,0,0,.909,1.4,4.4,4.4,0,0,0,1.341.97,3.821,3.821,0,0,0,1.649.362,3.82,3.82,0,0,0,1.649-.362,4.4,4.4,0,0,0,1.341-.97,4.682,4.682,0,0,0,.909-1.4,4.264,4.264,0,0,0,.335-1.676,4.285,4.285,0,0,0-.335-1.667,4.539,4.539,0,0,0-.909-1.4,4.476,4.476,0,0,0-1.341-.961A3.821,3.821,0,0,0,74.534-18.577ZM94.363-7.728l-8.5-7.674v7.674H83.407v-12.9h.265l8.485,7.8v-7.8h2.47v12.9Zm2.523-1.694L98.226-11.4a13.992,13.992,0,0,0,2,1.156,5.021,5.021,0,0,0,2.161.485,3.407,3.407,0,0,0,1.058-.15,2.663,2.663,0,0,0,.776-.388,1.6,1.6,0,0,0,.476-.547,1.324,1.324,0,0,0,.159-.609.973.973,0,0,0-.238-.662,1.789,1.789,0,0,0-.635-.45,5.149,5.149,0,0,0-.935-.3q-.538-.123-1.12-.229-.388-.071-.9-.168a9.938,9.938,0,0,1-1.058-.265,6.476,6.476,0,0,1-1.076-.441,3.937,3.937,0,0,1-.953-.688,3.179,3.179,0,0,1-.679-.988,3.29,3.29,0,0,1-.256-1.35,3.544,3.544,0,0,1,.459-1.879,3.472,3.472,0,0,1,1.173-1.182,4.925,4.925,0,0,1,1.588-.609,8.5,8.5,0,0,1,1.685-.176,8.867,8.867,0,0,1,1.447.106,6.433,6.433,0,0,1,1.182.309,6.566,6.566,0,0,1,1.067.512q.52.309,1.12.732l-1.376,1.941a8.865,8.865,0,0,0-1.764-.97,4.8,4.8,0,0,0-1.782-.335,3.812,3.812,0,0,0-.723.079,3.1,3.1,0,0,0-.767.256,1.87,1.87,0,0,0-.6.45.973.973,0,0,0-.238.662.859.859,0,0,0,.282.653,2.285,2.285,0,0,0,.723.441,6.734,6.734,0,0,0,.97.3q.529.123,1.023.247.371.088.873.176a9.457,9.457,0,0,1,1.041.247,6.5,6.5,0,0,1,1.067.423,3.606,3.606,0,0,1,.944.679,3.155,3.155,0,0,1,.67,1.023,3.8,3.8,0,0,1,.256,1.473,4.025,4.025,0,0,1-.353,1.746,3.239,3.239,0,0,1-1.006,1.226,4.627,4.627,0,0,1-1.552.732,7.523,7.523,0,0,1-1.993.247,9.324,9.324,0,0,1-1.773-.15,7.707,7.707,0,0,1-1.4-.406,7.654,7.654,0,0,1-1.2-.609Q97.485-9,96.885-9.421Z" transform="translate(-1.428 45.895)" fill="#afafaf"/>
    </g>
    <g id="Group_111855" data-name="Group 111855" transform="translate(1290.473 348.332)">
      <path id="Path_100361" data-name="Path 100361" d="M-14475.932,957.408l36.664-51.185v21.213Z" transform="translate(14475.932 -906.224)" fill="#00a7b5"/>
      <path id="Path_100364" data-name="Path 100364" d="M-14440.664,962.848-14466.2,927.2l-15.108,10.614Z" transform="translate(14515.785 -911.663)" fill="#ff8543"/>
      <path id="Path_100362" data-name="Path 100362" d="M-14424.585,901.561V921.2l9.113-6.209Z" transform="translate(14463.796 -901.561)" fill="#fc765a"/>
      <path id="Path_100368" data-name="Path 100368" d="M-14467.648,1213.932l28.746-22.851,37.559,22.851-39.435-10.564Z" transform="translate(14471.616 -1162.875)" fill="#6be5e5"/>
    </g>
  </g>
</svg>
